Coordinates
nRows=116
nColumns=2
inDegrees=yes
endheader
time	ankle_angle_r	
3.72154	 -4.668846	
3.7931	 -4.551541	
3.86467	 -4.580014	
3.93624	 -4.651287	
4.00781	 -4.663360	
4.07938	 -4.598362	
4.15094	 -4.590755	
4.22251	 -4.690709	
4.29408	 -4.758005	
4.36565	 -4.747374	
4.43722	 -4.768865	
4.50878	 -4.848201	
4.58035	 -4.781672	
4.65192	 -4.622850	
4.72349	 -4.619943	
4.79506	 -4.700371	
4.86662	 -4.674948	
4.93819	 -4.554315	
5.00976	 -4.550085	
5.08133	 -4.648360	
5.1529	 -4.649145	
5.22446	 -4.583460	
5.29603	 -4.581767	
5.3676	 -4.663663	
5.43917	 -4.687211	
5.51074	 -4.631903	
5.5823	 -4.628492	
5.65387	 -4.675800	
5.72544	 -4.686973	
5.79701	 -4.647755	
5.86858	 -4.685391	
5.94014	 -4.756003	
6.01171	 -4.739296	
6.08328	 -4.743031	
6.15485	 -4.813723	
6.22642	 -4.859843	
6.29798	 -4.794617	
6.36955	 -4.697253	
6.44112	 -4.709650	
6.51269	 -4.785858	
6.58426	 -4.765807	
6.65582	 -4.650612	
6.72739	 -4.681349	
6.79896	 -4.823531	
6.87053	 -4.822870	
6.9421	 -4.729908	
7.01366	 -4.758033	
7.08523	 -4.872262	
7.1568	 -4.844991	
7.22837	 -4.770792	
7.29994	 -4.762516	
7.3715	 -4.743315	
7.44307	 -4.735786	
7.51464	 -4.706837	
7.58621	 -4.744987	
7.65778	 -4.842382	
7.72934	 -4.838535	
7.80091	 -4.811508	
7.87248	 -4.789860	
7.94405	 -4.757956	
8.01562	 -4.755831	
8.08718	 -4.741106	
8.15875	 -4.696821	
8.23032	 -4.679687	
8.30189	 -4.656512	
8.37346	 -4.581937	
8.44502	 -4.573381	
8.51659	 -4.630654	
8.58816	 -4.636990	
8.65973	 -4.593100	
8.7313	 -4.587970	
8.80286	 -4.659385	
8.87443	 -4.657370	
8.946	 -4.588035	
9.01757	 -4.612265	
9.08914	 -4.659869	
9.1607	 -4.623513	
9.23227	 -4.581095	
9.30384	 -4.640533	
9.37541	 -4.706613	
9.44698	 -4.706794	
9.51854	 -4.703321	
9.59011	 -4.736496	
9.66168	 -4.788652	
9.73325	 -4.718646	
9.80482	 -4.599387	
9.87638	 -4.590142	
9.94795	 -4.625946	
10.0195	 -4.631247	
10.0911	 -4.564326	
10.1627	 -4.552166	
10.2342	 -4.638444	
10.3058	 -4.651061	
10.3774	 -4.589634	
10.4489	 -4.581635	
10.5205	 -4.673573	
10.5921	 -4.686243	
10.6636	 -4.584703	
10.7352	 -4.594608	
10.8068	 -4.668828	
10.8783	 -4.680372	
10.9499	 -4.679474	
11.0215	 -4.713437	
11.093	 -4.756280	
11.1646	 -4.766784	
11.2362	 -4.741870	
11.3077	 -4.710807	
11.3793	 -4.746490	
11.4509	 -4.811285	
11.5224	 -4.805026	
11.594	 -4.790516	
11.6656	 -4.843459	
11.7372	 -4.857328	
11.8087	 -4.779911	
11.8803	 -4.726712	
11.9519	 -4.714813	
